<svg id="chien" xmlns="http://www.w3.org/2000/svg" viewBox="0 0 512 480.03"><defs><style>.cls-1{fill:#0065fc;}</style></defs><title>chien</title><path class="cls-1" d="M330.06,208,480,261.56V480a16,16,0,0,1-16,16H400a16,16,0,0,1-16-16V368H224V480a16,16,0,0,1-16,16H144a16,16,0,0,1-16-16V266.1C90.84,252.85,64,217.67,64,176a32,32,0,0,1,64,0,32.06,32.06,0,0,0,32,32ZM576,96v32a64,64,0,0,1-64,64H480v35.58L352,181.88V32c0-14.25,17.22-21.39,27.31-11.31L406.59,48h53.63c10.91,0,23.75,7.92,28.62,17.69L496,80h64A16,16,0,0,1,576,96ZM464,96a16,16,0,1,0-16,16A16,16,0,0,0,464,96Z" transform="translate(-64 -15.99)"/></svg>