<svg xmlns="http://www.w3.org/2000/svg" viewBox="0 0 516 516"><defs><style>.cls-1{fill:none;stroke:#f2f2f2;stroke-miterlimit:10;stroke-width:20px;}.cls-2{fill:#0065fc;}</style></defs><title>info</title><g id="cercle"><path class="cls-1" d="M266,18C129,18,18,129.08,18,266S129,514,266,514,514,403,514,266,403,18,266,18Z" transform="translate(-8 -8)"/></g><g id="i"><path class="cls-2" d="M222,346a12,12,0,0,0-12,12v24a12,12,0,0,0,12,12h88a12,12,0,0,0,12-12V358a12,12,0,0,0-12-12H298V246a12,12,0,0,0-12-12H222a12,12,0,0,0-12,12v24a12,12,0,0,0,12,12h12v64Z" transform="translate(-8 -8)"/><circle class="cls-2" cx="258" cy="162" r="42"/></g></svg>